# xmcd
#
# Track frame offsets:
# 150
# 19065
# 33601
# 58804
# 84534
# 97485
# 113752
# 139094
# 169760
# 190879
# 203471
# 228536
# 257374
# 282359
# 304672
# 320015
# 337049
#
# Disc length: 4787 seconds
#
#
# Revision: 2
# Processed by: cddbd v1.5.2PL0 Copyright (c) Steve Scherf et al.
# Submitted via: FreeRIP 2.96 
#
DISCID=f712b111
DTITLE=Various Artist - Live On Stage: Love And The Blues
DYEAR=2003
DGENRE=Blues
TTITLE0=The Lovin' Thing [Mary Chapin Carpenter]
TTITLE1=Brick And Stone [Harry Manx]
TTITLE2=When Will You Fall For Me [Vika and Linda Bull]
TTITLE3=Queen Bee [Taj Mahal and The Phantom Blues Band]
TTITLE4=Honest I Do [The Revelators]
TTITLE5=Judgement Day [Guy Davis]
TTITLE6=Skin [Fruit]
TTITLE7=What A Little Moonlight Can Do [Kristen Cornwall]
TTITLE8=Light My Fire [Christine Sullivan]
TTITLE9=Ngurawalchilpa [Frank Yamma]
TTITLE10=Caledonia [Dougie MacLean]
TTITLE11=Alessandria [Mara!]
TTITLE12=Here With You [Robyne Dunn]
TTITLE13=Jigs and Reels [Alsdair Fraser and Tony McManus]
TTITLE14=The Price I Pay [Billy Bragg]
TTITLE15=The Truth Of A Woman [Kristina Olsen]
TTITLE16=Bridge Over Troubled Water [Joe Chindamo and Nina Ferro]
EXTD=Music from ABC Radio National's unique live music program.
EXTT0=
EXTT1=
EXTT2=
EXTT3=
EXTT4=
EXTT5=
EXTT6=
EXTT7=
EXTT8=
EXTT9=
EXTT10=
EXTT11=
EXTT12=
EXTT13=
EXTT14=
EXTT15=
EXTT16=
PLAYORDER=
